<mxfile host="app.diagrams.net" agent="Mozilla/5.0 (Windows NT 10.0; Win64; x64) AppleWebKit/537.36 (KHTML, like Gecko) Chrome/131.0.0.0 Safari/537.36" version="26.0.4">
  <diagram name="Page-1" id="8kqPFYOTgOR8cJa_2K6o">
    <mxGraphModel dx="658" dy="454" grid="1" gridSize="10" guides="1" tooltips="1" connect="1" arrows="1" fold="1" page="1" pageScale="1" pageWidth="827" pageHeight="1169" math="0" shadow="0">
      <root>
        <mxCell id="0" />
        <mxCell id="1" parent="0" />
        <mxCell id="I_5Cx2kkJB8Ita4QRoZ_-1" value="" style="shape=image;verticalLabelPosition=bottom;labelBackgroundColor=default;verticalAlign=top;aspect=fixed;imageAspect=0;image=https://upload.wikimedia.org/wikipedia/commons/thumb/f/f5/Typescript.svg/64px-Typescript.svg.png;" vertex="1" parent="1">
          <mxGeometry x="190" y="180" width="64" height="64" as="geometry" />
        </mxCell>
        <mxCell id="I_5Cx2kkJB8Ita4QRoZ_-4" value="" style="shape=image;verticalLabelPosition=bottom;labelBackgroundColor=#000000;verticalAlign=top;aspect=fixed;imageAspect=0;image=https://fastify.dev/img/logos/fastify-white.svg;imageBackground=#000000;fontColor=#000000;" vertex="1" parent="1">
          <mxGeometry x="290" y="180.00000000000003" width="210" height="64.4" as="geometry" />
        </mxCell>
        <mxCell id="I_5Cx2kkJB8Ita4QRoZ_-6" value="&lt;font style=&quot;font-size: 22px;&quot;&gt;fluent-json-schema&lt;/font&gt;" style="text;html=1;align=center;verticalAlign=middle;whiteSpace=wrap;rounded=0;" vertex="1" parent="1">
          <mxGeometry x="280" y="279.5" width="220" height="30" as="geometry" />
        </mxCell>
        <mxCell id="I_5Cx2kkJB8Ita4QRoZ_-9" value="" style="shape=image;verticalLabelPosition=bottom;labelBackgroundColor=default;verticalAlign=top;aspect=fixed;imageAspect=0;image=https://upload.wikimedia.org/wikipedia/en/thumb/d/dd/MySQL_logo.svg/100px-MySQL_logo.svg.png;" vertex="1" parent="1">
          <mxGeometry x="172" y="260" width="100" height="69" as="geometry" />
        </mxCell>
        <mxCell id="I_5Cx2kkJB8Ita4QRoZ_-10" value="" style="shape=image;verticalLabelPosition=bottom;labelBackgroundColor=default;verticalAlign=top;aspect=fixed;imageAspect=0;image=https://upload.wikimedia.org/wikipedia/commons/thumb/3/30/React_Logo_SVG.svg/100px-React_Logo_SVG.svg.png;" vertex="1" parent="1">
          <mxGeometry x="200" y="347.5" width="100" height="93" as="geometry" />
        </mxCell>
        <mxCell id="I_5Cx2kkJB8Ita4QRoZ_-11" value="" style="shape=image;verticalLabelPosition=bottom;labelBackgroundColor=default;verticalAlign=top;aspect=fixed;imageAspect=0;image=https://upload.wikimedia.org/wikipedia/commons/thumb/9/96/Socket-io.svg/170px-Socket-io.svg.png;" vertex="1" parent="1">
          <mxGeometry x="470" y="347.5" width="94" height="94" as="geometry" />
        </mxCell>
        <mxCell id="I_5Cx2kkJB8Ita4QRoZ_-13" value="" style="shape=image;verticalLabelPosition=bottom;labelBackgroundColor=default;verticalAlign=top;aspect=fixed;imageAspect=0;image=https://upload.wikimedia.org/wikipedia/commons/thumb/8/86/Chart.js_logo.svg/220px-Chart.js_logo.svg.png;" vertex="1" parent="1">
          <mxGeometry x="330" y="340.5" width="100" height="100" as="geometry" />
        </mxCell>
        <mxCell id="I_5Cx2kkJB8Ita4QRoZ_-14" value="" style="shape=image;verticalLabelPosition=bottom;labelBackgroundColor=default;verticalAlign=top;aspect=fixed;imageAspect=0;image=https://rxjs.dev/generated/images/marketing/home/Rx_Logo-512-512.png;" vertex="1" parent="1">
          <mxGeometry x="510" y="200" width="112" height="112" as="geometry" />
        </mxCell>
      </root>
    </mxGraphModel>
  </diagram>
</mxfile>
